# xmcd CD database file
#
# Track frame offsets:
#	183
#	45398
#	71420
#	110660
#	148400
#	193758
#	218650
#
# Disc length: 3054 seconds
#
# Revision: 0
# Processed by: cddbd v1.5.2PL0 Copyright (c) Steve Scherf et al.
# Submitted via: CDex 1.70beta2
#
DISCID=6a0bec07
DTITLE=Getz, Stan and Baker, Chet - Line for Lyons
DYEAR=1983
DGENRE=Jazz
TTITLE0=Just Friends
TTITLE1=Stella by Starlight
TTITLE2=Airegin
TTITLE3=My Funny Valentine
TTITLE4=Milestones
TTITLE5=Dear Old Stockholm
TTITLE6=Line for Lyons
EXTD=YEAR: 1983
EXTT0=
EXTT1=
EXTT2=
EXTT3=
EXTT4=
EXTT5=
EXTT6=
PLAYORDER=
